<svg xmlns="http://www.w3.org/2000/svg" width="56" height="56">
  <circle cx="28" cy="28" r="24" stroke="#db2227" fill="#fff" stroke-width="6%"/>
  <path
    data-name="Trazado 2464"
    d="M40.62 43.822H30.105V20.705h5.024v18.408h5.49Zm-12.53-14.83c0 4.215-2.505 6.509-6.091 6.509h-.737c-3.558 0-6.146-2.046-6.146-6.325V12.017h5.026v17.456q0 1.834 1.311 1.834h.276c1.12 0 1.339-1.2 1.339-2.2v-17.09h5.025Zm-9.44 11.225a2.951 2.951 0 1 0 2.933-3.283 3.127 3.127 0 0 0-2.933 3.283Zm.553 0a2.409 2.409 0 1 1 2.38 2.786 2.606 2.606 0 0 1-2.379-2.786Zm1.307 1.614h.545v-1.358h.444c.62 0 .637.309.645.609.017.544.008.619.109.751h.561c-.117-.178-.092-.272-.117-.779-.017-.328-.042-.7-.419-.788v-.019a.762.762 0 0 0 .494-.751.871.871 0 0 0-.963-.947h-1.3v3.283Zm.545-2.833h.57c.352 0 .595.1.595.5a.473.473 0 0 1-.536.526h-.628v-1.027Z"
    fill="#db2227"
  />
</svg>
